<?xml version="1.0" encoding="utf-8"?>
<!-- Generator: Adobe Illustrator 25.0.1, SVG Export Plug-In . SVG Version: 6.00 Build 0)  -->
<svg version="1.1" id="Layer_1" xmlns="http://www.w3.org/2000/svg" xmlns:xlink="http://www.w3.org/1999/xlink" x="0px" y="0px"
	 viewBox="0 0 64 80" style="enable-background:new 0 0 64 80;" xml:space="preserve">
<style type="text/css">
	.st0{stroke:#000000;stroke-miterlimit:10;}
</style>
<g>
	<path class="st0" d="M30.9,43.8l-1.8-3.6c0-2.8-1.2-5.6-3.2-7.5c-1.9-1.8-4.5-2.7-7.1-2.6C13.5,30.3,9.3,34.6,9,40
		c-0.2,2.9,0.9,5.7,3,7.7v5.8c0,0.9,0.7,1.6,1.6,1.6h8.8c0.9,0,1.6-0.7,1.6-1.6V51h2c1.2,0,2.2-1,2.2-2.2V46h1.1
		c0.9,0,1.6-0.7,1.6-1.6c0-0.2,0-0.3-0.1-0.4C30.9,43.9,30.9,43.8,30.9,43.8z M27.9,44c-0.9,0-1.6,0.7-1.6,1.6v3.1
		c0,0.1-0.1,0.2-0.2,0.3l0,0h-2.4c-0.9,0-1.6,0.7-1.6,1.6V53h-8v-5.6c0-0.4-0.2-0.9-0.5-1.2c-1.7-1.6-2.6-3.9-2.5-6.2
		c0.2-4.3,3.6-7.8,8-8c2.1-0.1,4.1,0.6,5.6,2c1.7,1.7,2.6,4,2.6,6.3c0,0.2,0,0.3,0.1,0.4l1.5,3.2L27.9,44L27.9,44z"/>
	<path class="st0" d="M19,19c0.6,0,1-0.4,1-1c0-0.4-0.2-0.7-0.6-0.9c-1-0.5-2-1.1-2.8-1.8c1-1.3,1.7-2.7,2.2-4.3H20c0.6,0,1-0.4,1-1
		s-0.4-1-1-1h-4V8c0-0.6-0.4-1-1-1s-1,0.4-1,1v1h-4c-0.6,0-1,0.4-1,1s0.4,1,1,1h6.7c-0.4,1.1-0.9,2-1.6,2.9c-0.5-0.5-0.9-1-1.3-1.5
		c-0.3-0.5-0.9-0.6-1.4-0.3s-0.6,0.9-0.3,1.4c0.5,0.6,1,1.3,1.5,1.8c-0.9,0.7-1.9,1.3-3,1.7c-0.5,0.2-0.8,0.7-0.6,1.3
		c0.2,0.5,0.7,0.8,1.3,0.6l0,0c1.4-0.5,2.8-1.2,3.9-2.2c1,0.8,2.2,1.6,3.3,2.2C18.7,19,18.8,19,19,19z"/>
	<path class="st0" d="M16,27c0.6,0,1-0.4,1-1v-3h7c1.7,0,3-1.3,3-3V6c0-1.7-1.3-3-3-3H6C4.3,3,3,4.3,3,6v14c0,1.7,1.3,3,3,3h1.8
		l7.8,3.9C15.7,27,15.8,27,16,27z M15,22v2.4l-6.6-3.3C8.3,21,8.2,21,8,21H6c-0.6,0-1-0.4-1-1V6c0-0.6,0.4-1,1-1h18c0.6,0,1,0.4,1,1
		v14c0,0.6-0.4,1-1,1h-8C15.4,21,15,21.4,15,22z"/>
	<path class="st0" d="M58,7H40c-1.7,0-3,1.3-3,3v14c0,1.7,1.3,3,3,3h0.5L39,30.6c-0.2,0.5,0,1.1,0.5,1.3c0.3,0.1,0.6,0.1,0.8,0
		l9.8-4.9H58c1.7,0,3-1.3,3-3V10C61,8.3,59.7,7,58,7z M59,24c0,0.6-0.4,1-1,1h-8c-0.2,0-0.3,0-0.4,0.1L42,28.9l1-2.6
		c0.2-0.5,0-1.1-0.6-1.3c-0.1,0-0.3,0-0.4,0h-2c-0.6,0-1-0.4-1-1V10c0-0.6,0.4-1,1-1h18c0.6,0,1,0.4,1,1V24z"/>
	<path class="st0" d="M58,41H40c-1.7,0-3,1.3-3,3v3h-3c-0.6,0-1,0.4-1,1c0,0.2,0,0.3,0.1,0.5l3.9,6.8V58c0,1.7,1.3,3,3,3l0,0h18
		c1.7,0,3-1.3,3-3l0,0V44C61,42.3,59.7,41,58,41z M59,58c0,0.6-0.4,1-1,1H40c-0.6,0-1-0.4-1-1v-3c0-0.2,0-0.3-0.1-0.5L35.7,49H38
		c0.6,0,1-0.4,1-1v-4c0-0.6,0.4-1,1-1h18c0.6,0,1,0.4,1,1V58z"/>
	<path class="st0" d="M49.9,11.6c-0.3-0.5-0.9-0.7-1.4-0.4c-0.1,0.1-0.3,0.2-0.4,0.4l-5,10c-0.2,0.5,0,1.1,0.4,1.3
		c0.5,0.2,1.1,0,1.3-0.4l4.1-8.2l1.9,3.8H49c-0.6,0-1,0.4-1,1s0.4,1,1,1h2.9l1.2,2.4c0.2,0.5,0.8,0.7,1.3,0.4
		c0.5-0.2,0.7-0.8,0.4-1.3l0,0L49.9,11.6z"/>
	<path class="st0" d="M53,55h-5c-1.1,0-2-0.9-2-2s0.9-2,2-2h4c0.6,0,1-0.4,1-1s-0.4-1-1-1h-2c-0.6,0-1-0.5-1-1s0.5-1,1-1
		c0.4,0,0.7,0.2,0.9,0.6c0.2,0.5,0.8,0.7,1.3,0.4c0.5-0.2,0.7-0.8,0.4-1.3c-0.8-1.5-2.6-2-4-1.3c-1.3,0.7-1.9,2.3-1.4,3.7
		c-2.2,0.4-3.6,2.6-3.1,4.7c0.4,1.9,2,3.2,3.9,3.2h5c0.6,0,1-0.4,1-1S53.6,55,53,55z"/>
</g>
</svg>
